<svg data-v-423bf9ae="" xmlns="http://www.w3.org/2000/svg" viewBox="0 0 466 90" class="iconLeft"><!----><!----><!----><g data-v-423bf9ae="" id="dc07905d-4e21-4fc6-b446-9eb0b61c06f0" fill="black" transform="matrix(6.269592676418792,0,0,6.269592676418792,152.16979235171237,-11.081504577238256)"><path d="M5.51 4.16C2.75 4.16 0.68 6.32 0.68 8.94C0.68 11.57 2.75 13.73 5.51 13.73C6.84 13.73 7.89 13.26 8.53 12.69L8.53 11.46C7.89 11.95 6.90 12.52 5.51 12.52C3.46 12.52 1.94 10.99 1.94 8.94C1.94 6.89 3.46 5.36 5.51 5.36C6.90 5.36 7.64 6.07 8.26 6.49L8.26 5.14C7.62 4.57 6.84 4.16 5.51 4.16ZM13.47 6.55C11.39 6.55 9.90 8.20 9.90 10.14C9.90 12.09 11.39 13.73 13.47 13.73C15.54 13.73 17.04 12.09 17.04 10.14C17.04 8.20 15.54 6.55 13.47 6.55ZM13.47 7.64C14.93 7.64 15.87 8.82 15.87 10.14C15.87 11.47 14.93 12.63 13.47 12.63C12.00 12.63 11.06 11.47 11.06 10.14C11.06 8.82 12.00 7.64 13.47 7.64ZM20.92 6.55C19.46 6.55 18.51 7.41 18.51 8.57C18.51 9.35 18.76 9.98 19.82 10.38L20.84 10.75C21.48 10.98 21.82 11.20 21.82 11.63C21.82 12.21 21.29 12.63 20.43 12.63C19.74 12.63 18.79 12.21 18.40 11.92L18.40 13.13C18.72 13.36 19.70 13.73 20.51 13.73C21.97 13.73 23.02 12.80 23.02 11.63C23.02 10.86 22.59 10.25 21.70 9.94L20.55 9.53C19.92 9.31 19.71 8.91 19.71 8.57C19.71 8.13 20.14 7.64 21 7.64C21.68 7.64 22.41 7.98 22.79 8.27L22.79 7.07C22.48 6.84 21.72 6.55 20.92 6.55ZM32.62 6.55C31.61 6.55 30.91 7.19 30.27 7.94C29.80 7.01 28.89 6.55 27.90 6.55C26.97 6.55 26.29 7.07 25.85 7.56L25.85 6.69L24.73 6.69L24.73 13.52L25.85 13.52L25.85 8.76C26.36 8.15 26.96 7.64 27.71 7.64C28.79 7.64 29.44 8.29 29.44 9.46L29.45 13.52L30.57 13.52L30.57 8.87C31.09 8.22 31.64 7.64 32.43 7.64C33.51 7.64 34.15 8.29 34.15 9.46L34.17 13.52L35.29 13.52L35.29 9.35C35.29 7.46 34.02 6.55 32.62 6.55ZM40.50 6.55C38.42 6.55 36.93 8.20 36.93 10.14C36.93 12.09 38.42 13.73 40.50 13.73C42.57 13.73 44.06 12.09 44.06 10.14C44.06 8.20 42.57 6.55 40.50 6.55ZM40.50 7.64C41.96 7.64 42.90 8.82 42.90 10.14C42.90 11.47 41.96 12.63 40.50 12.63C39.03 12.63 38.09 11.47 38.09 10.14C38.09 8.82 39.03 7.64 40.50 7.64ZM47.95 6.55C46.48 6.55 45.54 7.41 45.54 8.57C45.54 9.35 45.79 9.98 46.85 10.38L47.87 10.75C48.51 10.98 48.85 11.20 48.85 11.63C48.85 12.21 48.32 12.63 47.46 12.63C46.77 12.63 45.81 12.21 45.43 11.92L45.43 13.13C45.75 13.36 46.73 13.73 47.54 13.73C49 13.73 50.05 12.80 50.05 11.63C50.05 10.86 49.62 10.25 48.73 9.94L47.58 9.53C46.95 9.31 46.74 8.91 46.74 8.57C46.74 8.13 47.17 7.64 48.03 7.64C48.71 7.64 49.44 7.98 49.82 8.27L49.82 7.07C49.51 6.84 48.75 6.55 47.95 6.55Z"></path></g><!----><g data-v-423bf9ae="" id="41a47e4d-b916-4259-b9be-f4b54305bfaf" transform="matrix(2.86624155072034,0,0,2.86624155072034,-2.4560444894462705,-26.356046777656488)" stroke="none" fill="black"><path d="M48.5 18.4c-.7-2.7-5.2-2.7-6.6-2.7-4.5 0-11.1 1.1-18.6 3.1-6.3 1.7-11.9 3.7-15.7 5.6C2.8 26.8.7 29 1.3 31.1c.7 2.7 5.2 2.7 6.6 2.7 4.5 0 11.1-1.1 18.6-3.1 6.3-1.7 11.9-3.7 15.7-5.6 4.8-2.3 6.9-4.5 6.3-6.7zm-7.4 4.5c-3.7 1.8-9.2 3.8-15.3 5.4-7.2 1.9-13.7 3-17.9 3-3.2 0-4.1-.7-4.2-.9 0 0-.1-1.3 5-3.8 3.7-1.8 9.2-3.8 15.3-5.4 7.2-1.9 13.7-3 17.9-3 3.2 0 4.1.7 4.2.9 0 0 .1 1.3-5 3.8z"></path><path d="M34.9 20.8c-.2 0-3.9.4-10.5 2.1-6.6 1.8-10 3.3-10.2 3.4-.5.3-.8.9-.7 1.5.1.6.6.9 1.2.9h.1c.2 0 3.9-.4 10.5-2.1 6.6-1.8 10-3.3 10.2-3.4.5-.3.8-.9.7-1.5-.1-.6-.7-1-1.3-.9zM16.2 18.2c0-.8-.6-1.4-1.4-1.4-.8 0-1.4.6-1.4 1.4 0 .8.6 1.4 1.4 1.4.7 0 1.4-.6 1.4-1.4zM34 13.3c0-.8-.6-1.4-1.4-1.4-.8 0-1.4.6-1.4 1.4 0 .8.6 1.4 1.4 1.4.8 0 1.4-.6 1.4-1.4zM27.9 10.7c0-.8-.6-1.4-1.4-1.4-.8 0-1.4.6-1.4 1.4 0 .8.6 1.4 1.4 1.4.8 0 1.4-.6 1.4-1.4zM10.2 36.1c-.8 0-1.4.6-1.4 1.4 0 .8.6 1.4 1.4 1.4.8 0 1.4-.6 1.4-1.4-.1-.8-.7-1.4-1.4-1.4zM47.4 23.9c-.8 0-1.4.6-1.4 1.4 0 .8.6 1.4 1.4 1.4.8 0 1.4-.6 1.4-1.4 0-.8-.6-1.4-1.4-1.4zM5 37.9c-.8 0-1.4.6-1.4 1.4 0 .8.6 1.4 1.4 1.4.8 0 1.4-.6 1.4-1.4 0-.8-.6-1.4-1.4-1.4z"></path></g><!----></svg>